M48
; DRILL file {KiCad 9.0.8} date 2026-04-22T20:55:09-0700
; FORMAT={-:-/ absolute / metric / decimal}
; #@! TF.CreationDate,2026-04-22T20:55:09-07:00
; #@! TF.GenerationSoftware,Kicad,Pcbnew,9.0.8
; #@! TF.FileFunction,NonPlated,1,2,NPTH
FMAT,2
METRIC
; #@! TA.AperFunction,NonPlated,NPTH,ComponentDrill
T1C0.600
; #@! TA.AperFunction,NonPlated,NPTH,ComponentDrill
T2C1.750
; #@! TA.AperFunction,NonPlated,NPTH,ComponentDrill
T3C2.200
; #@! TA.AperFunction,NonPlated,NPTH,ComponentDrill
T4C3.048
; #@! TA.AperFunction,NonPlated,NPTH,ComponentDrill
T5C3.988
; #@! TA.AperFunction,NonPlated,NPTH,ComponentDrill
T6C4.000
%
G90
G05
T1
X194.725Y-5.87
X200.505Y-5.87
T2
X12.065Y-19.469
X12.065Y-43.282
X14.446Y-119.481
X16.828Y-62.331
X19.209Y-81.382
X22.225Y-19.469
X22.225Y-43.282
X23.971Y-100.431
X24.606Y-119.481
X26.987Y-62.331
X29.369Y-81.382
X31.115Y-43.282
X34.131Y-100.431
X38.259Y-119.481
X40.64Y-19.469
X40.64Y-62.331
X41.275Y-43.282
X45.402Y-81.382
X48.419Y-119.481
X50.165Y-43.282
X50.8Y-19.469
X50.8Y-62.331
X54.927Y-100.431
X55.562Y-81.382
X59.69Y-19.469
X59.69Y-62.331
X60.325Y-43.282
X62.071Y-119.481
X64.453Y-81.382
X65.087Y-100.431
X69.215Y-43.282
X69.85Y-19.469
X69.85Y-62.331
X72.231Y-119.481
X73.977Y-100.431
X74.612Y-81.382
X78.74Y-19.469
X78.74Y-62.331
X79.375Y-43.282
X83.502Y-81.382
X84.138Y-100.431
X88.265Y-43.282
X88.9Y-19.469
X88.9Y-62.331
X93.027Y-100.431
X93.662Y-81.382
X97.79Y-19.469
X97.79Y-62.331
X98.425Y-43.282
X102.552Y-81.382
X103.188Y-100.431
X107.315Y-43.282
X107.95Y-19.469
X107.95Y-62.331
X112.078Y-100.431
X112.712Y-81.382
X116.84Y-62.331
X117.475Y-43.282
X121.602Y-81.382
X122.237Y-100.431
X126.365Y-43.282
X127.0Y-62.331
X131.127Y-19.469
X131.127Y-100.431
X131.762Y-81.382
X133.509Y-119.481
X135.89Y-62.331
X136.525Y-43.282
X140.653Y-81.382
X141.287Y-19.469
X141.287Y-100.431
X143.669Y-119.481
X145.415Y-43.282
X146.05Y-62.331
X150.177Y-19.469
X150.177Y-100.431
X150.812Y-81.382
X154.94Y-62.331
X155.575Y-43.282
X159.702Y-81.382
X160.338Y-19.469
X160.338Y-100.431
X164.465Y-43.282
X165.1Y-62.331
X169.227Y-19.469
X169.227Y-100.431
X169.862Y-81.382
X173.99Y-62.331
X174.625Y-43.282
X178.752Y-81.382
X179.387Y-19.469
X179.387Y-100.431
X183.515Y-43.282
X184.15Y-62.331
X188.278Y-19.469
X188.278Y-100.431
X188.912Y-81.382
X193.04Y-62.331
X193.675Y-43.282
X197.802Y-81.382
X198.438Y-19.469
X198.438Y-100.431
X202.565Y-43.282
X203.2Y-62.331
X204.946Y-119.481
X207.327Y-100.431
X207.962Y-81.382
X212.09Y-62.331
X212.725Y-43.282
X215.106Y-119.481
X216.852Y-81.382
X217.487Y-100.431
X221.615Y-19.469
X221.615Y-43.282
X222.25Y-62.331
X226.377Y-100.431
X227.012Y-81.382
X228.759Y-119.481
X231.14Y-62.331
X231.775Y-19.469
X231.775Y-43.282
X235.903Y-81.382
X236.537Y-100.431
X238.919Y-119.481
X240.665Y-19.469
X240.665Y-43.282
X241.3Y-62.331
X246.062Y-81.382
X250.19Y-62.331
X250.825Y-19.469
X250.825Y-43.282
X252.571Y-119.481
X259.715Y-19.469
X260.35Y-62.331
X262.096Y-100.431
X262.731Y-119.481
X266.859Y-81.382
X269.24Y-43.282
X269.875Y-19.469
X272.256Y-100.431
X274.002Y-62.331
X276.384Y-119.481
X277.019Y-81.382
X278.765Y-19.469
X279.4Y-43.282
X284.162Y-62.331
X286.544Y-119.481
X288.925Y-19.469
X329.641Y-43.218
X329.641Y-119.418
X339.801Y-43.218
X339.801Y-119.418
X348.691Y-24.168
X348.691Y-43.218
X348.691Y-62.268
X348.691Y-100.368
X348.691Y-119.418
X358.851Y-24.168
X358.851Y-43.218
X358.851Y-62.268
X358.851Y-100.368
X358.851Y-119.418
X367.741Y-43.218
X367.741Y-119.418
X377.901Y-43.218
X377.901Y-119.418
T3
X6.0Y-5.0
X7.0Y-142.0
X303.0Y-6.0
X303.0Y-143.0
T4
X17.254Y-93.465
X41.066Y-93.465
X88.598Y-112.48
X188.61Y-112.48
X255.318Y-93.45
X260.114Y-74.395
X262.324Y-36.175
X279.13Y-93.45
X283.926Y-74.395
X286.136Y-36.175
T5
X17.254Y-108.705
X41.066Y-108.705
X88.598Y-127.72
X188.61Y-127.72
X255.318Y-108.69
X260.114Y-89.635
X262.324Y-51.415
X279.13Y-108.69
X283.926Y-89.635
X286.136Y-51.415
T6
X17.145Y-19.469
X17.145Y-43.282
X19.526Y-119.481
X21.907Y-62.331
X24.289Y-81.382
X29.051Y-100.431
X36.195Y-43.282
X43.339Y-119.481
X45.72Y-19.469
X45.72Y-62.331
X50.482Y-81.382
X55.245Y-43.282
X60.008Y-100.431
X64.77Y-19.469
X64.77Y-62.331
X67.151Y-119.481
X69.532Y-81.382
X74.295Y-43.282
X79.057Y-100.431
X83.82Y-19.469
X83.82Y-62.331
X88.582Y-81.382
X93.345Y-43.282
X98.108Y-100.431
X102.87Y-19.469
X102.87Y-62.331
X107.632Y-81.382
X112.395Y-43.282
X117.157Y-100.431
X121.92Y-62.331
X126.682Y-81.382
X131.445Y-43.282
X136.207Y-19.469
X136.207Y-100.431
X138.589Y-119.481
X140.97Y-62.331
X145.732Y-81.382
X150.495Y-43.282
X155.257Y-19.469
X155.257Y-100.431
X160.02Y-62.331
X164.782Y-81.382
X169.545Y-43.282
X174.308Y-19.469
X174.308Y-100.431
X179.07Y-62.331
X183.832Y-81.382
X188.595Y-43.282
X193.357Y-19.469
X193.357Y-100.431
X198.12Y-62.331
X202.882Y-81.382
X207.645Y-43.282
X210.026Y-119.481
X212.407Y-100.431
X217.17Y-62.331
X221.932Y-81.382
X226.695Y-19.469
X226.695Y-43.282
X231.457Y-100.431
X233.839Y-119.481
X236.22Y-62.331
X240.982Y-81.382
X245.745Y-19.469
X245.745Y-43.282
X255.27Y-62.331
X257.651Y-119.481
X264.795Y-19.469
X267.176Y-100.431
X271.939Y-81.382
X274.32Y-43.282
X279.082Y-62.331
X281.464Y-119.481
X283.845Y-19.469
X334.721Y-43.218
X334.721Y-119.418
X353.771Y-24.168
X353.771Y-43.218
X353.771Y-62.268
X353.771Y-100.368
X353.771Y-119.418
X372.821Y-43.218
X372.821Y-119.418
M30
