M48
; DRILL file {KiCad 9.0.8} date 2026-04-22T20:55:09-0700
; FORMAT={-:-/ absolute / metric / decimal}
; #@! TF.CreationDate,2026-04-22T20:55:09-07:00
; #@! TF.GenerationSoftware,Kicad,Pcbnew,9.0.8
; #@! TF.FileFunction,Plated,1,2,PTH
FMAT,2
METRIC
; #@! TA.AperFunction,Plated,PTH,ComponentDrill
T1C0.200
; #@! TA.AperFunction,Plated,PTH,ViaDrill
T2C0.300
; #@! TA.AperFunction,Plated,PTH,ComponentDrill
T3C0.600
; #@! TA.AperFunction,Plated,PTH,ComponentDrill
T4C0.900
; #@! TA.AperFunction,Plated,PTH,ComponentDrill
T5C1.000
; #@! TA.AperFunction,Plated,PTH,ComponentDrill
T6C1.020
; #@! TA.AperFunction,Plated,PTH,ComponentDrill
T7C1.500
; #@! TA.AperFunction,Plated,PTH,ComponentDrill
T8C2.000
%
G90
G05
T1
X374.507Y-73.17
X375.082Y-72.22
X375.082Y-74.12
X375.657Y-73.17
T2
X117.674Y-140.129
X200.118Y-8.8
X203.985Y-140.528
X205.037Y-136.475
X205.596Y-140.329
X264.926Y-124.928
X266.688Y-128.379
X267.816Y-127.893
X268.438Y-126.545
X270.227Y-124.882
X281.449Y-113.394
X282.054Y-100.802
X284.475Y-121.004
X286.108Y-115.816
X286.674Y-70.487
X286.761Y-55.426
X288.031Y-96.142
X289.612Y-115.2
X289.783Y-27.184
X290.212Y-112.485
X290.81Y-110.167
X291.526Y-108.066
X292.724Y-105.169
X293.62Y-102.71
X300.38Y-117.745
X300.48Y-127.877
X300.559Y-124.882
X301.745Y-75.657
X302.026Y-54.121
X302.798Y-119.139
X303.224Y-78.227
X304.801Y-77.134
X307.324Y-17.544
X307.849Y-105.4
X308.023Y-24.497
X310.511Y-46.195
X310.702Y-54.88
X311.096Y-87.075
X311.129Y-127.94
X313.32Y-105.4
X313.687Y-114.413
X314.373Y-47.049
X317.475Y-67.329
X317.711Y-45.482
X317.711Y-55.451
X319.344Y-46.166
X322.148Y-12.07
X322.635Y-93.373
X322.934Y-87.332
X322.964Y-79.748
X324.324Y-125.697
X324.347Y-99.145
X324.347Y-106.877
X324.935Y-87.175
X325.643Y-58.807
X328.876Y-103.406
X329.515Y-58.827
X330.072Y-57.312
X330.252Y-54.524
X331.725Y-66.753
X332.518Y-69.361
X332.768Y-65.96
X333.788Y-124.975
X338.255Y-70.491
X338.702Y-64.248
X339.546Y-62.606
X340.726Y-70.321
X341.81Y-60.868
X342.069Y-69.498
X348.859Y-73.207
X348.951Y-71.454
X349.283Y-68.395
X351.216Y-110.861
X352.013Y-52.739
X352.616Y-70.223
X354.549Y-84.156
X361.399Y-90.936
X370.538Y-80.23
X371.167Y-77.987
X371.702Y-89.469
X372.794Y-71.765
X376.559Y-75.259
X377.277Y-88.909
X377.821Y-72.059
X378.668Y-88.879
X378.906Y-72.011
T4
X367.375Y-7.057
X369.915Y-7.057
X374.787Y-7.057
X377.327Y-7.057
X382.0Y-7.0
X384.54Y-7.0
T5
X310.511Y-15.895
X310.511Y-20.945
X310.511Y-25.995
X310.511Y-31.045
X310.511Y-36.095
X310.553Y-41.245
X319.511Y-15.895
X319.511Y-20.945
X319.511Y-25.995
X319.511Y-31.045
X319.511Y-36.095
X319.553Y-41.245
X323.989Y-15.888
X332.989Y-15.888
T6
X297.82Y-67.15
X297.82Y-69.69
X297.82Y-72.23
X297.82Y-74.77
X297.82Y-77.31
X297.82Y-79.85
X297.82Y-82.39
X297.82Y-84.93
X297.82Y-87.47
X297.82Y-90.01
X297.82Y-92.55
X297.82Y-95.09
X297.82Y-97.63
X297.82Y-100.17
X297.82Y-102.71
X297.82Y-105.25
X297.82Y-107.79
X297.82Y-110.33
X297.82Y-112.87
X297.82Y-115.41
X297.82Y-117.95
X297.82Y-120.49
X320.68Y-67.15
X320.68Y-69.69
X320.68Y-72.23
X320.68Y-74.77
X320.68Y-77.31
X320.68Y-79.85
X320.68Y-82.39
X320.68Y-84.93
X320.68Y-87.47
X320.68Y-90.01
X320.68Y-92.55
X320.68Y-95.09
X320.68Y-97.63
X320.68Y-100.17
X320.68Y-102.71
X320.68Y-105.25
X320.68Y-107.79
X320.68Y-110.33
X320.68Y-112.87
X320.68Y-115.41
X320.68Y-117.95
X320.68Y-120.49
T7
X3.547Y-82.021
X3.547Y-86.021
X3.547Y-90.021
X13.335Y-16.929
X13.335Y-40.741
X15.716Y-116.941
X18.098Y-59.791
X19.685Y-14.389
X19.685Y-38.201
X20.479Y-78.841
X22.066Y-114.401
X24.447Y-57.252
X25.241Y-97.891
X26.829Y-76.301
X31.591Y-95.352
X32.385Y-40.741
X38.735Y-38.201
X39.529Y-116.941
X41.91Y-16.929
X41.91Y-59.791
X45.879Y-114.401
X46.672Y-78.841
X48.26Y-14.389
X48.26Y-57.252
X51.435Y-40.741
X53.023Y-76.301
X56.197Y-97.891
X57.785Y-38.201
X60.96Y-16.929
X60.96Y-59.791
X62.547Y-95.352
X63.341Y-116.941
X65.722Y-78.841
X67.31Y-14.389
X67.31Y-57.252
X69.691Y-114.401
X70.485Y-40.741
X72.072Y-76.301
X75.248Y-97.891
X76.835Y-38.201
X80.01Y-16.929
X80.01Y-59.791
X81.597Y-95.352
X84.772Y-78.841
X86.36Y-14.389
X86.36Y-57.252
X89.535Y-40.741
X91.123Y-76.301
X94.297Y-97.891
X95.885Y-38.201
X99.06Y-16.929
X99.06Y-59.791
X100.647Y-95.352
X103.822Y-78.841
X105.41Y-14.389
X105.41Y-57.252
X108.585Y-40.741
X110.172Y-76.301
X113.347Y-97.891
X114.935Y-38.201
X118.11Y-59.791
X119.697Y-95.352
X122.872Y-78.841
X124.46Y-57.252
X127.635Y-40.741
X129.222Y-76.301
X132.398Y-16.929
X132.398Y-97.891
X133.985Y-38.201
X134.779Y-116.941
X137.16Y-59.791
X138.748Y-14.389
X138.748Y-95.352
X141.129Y-114.401
X141.922Y-78.841
X143.51Y-57.252
X146.685Y-40.741
X148.272Y-76.301
X151.447Y-16.929
X151.447Y-97.891
X153.035Y-38.201
X156.21Y-59.791
X157.797Y-14.389
X157.797Y-95.352
X160.972Y-78.841
X162.56Y-57.252
X165.735Y-40.741
X167.322Y-76.301
X170.498Y-16.929
X170.498Y-97.891
X172.085Y-38.201
X175.26Y-59.791
X176.847Y-14.389
X176.847Y-95.352
X180.022Y-78.841
X181.61Y-57.252
X184.785Y-40.741
X186.373Y-76.301
X189.547Y-16.929
X189.547Y-97.891
X191.135Y-38.201
X194.31Y-59.791
X195.897Y-14.389
X195.897Y-95.352
X199.072Y-78.841
X200.66Y-57.252
X203.835Y-40.741
X205.422Y-76.301
X206.216Y-116.941
X208.597Y-97.891
X210.185Y-38.201
X212.566Y-114.401
X213.36Y-59.791
X214.947Y-95.352
X218.123Y-78.841
X219.71Y-57.252
X222.885Y-16.929
X222.885Y-40.741
X224.472Y-76.301
X227.647Y-97.891
X229.235Y-14.389
X229.235Y-38.201
X230.029Y-116.941
X232.41Y-59.791
X233.998Y-95.352
X236.379Y-114.401
X237.172Y-78.841
X238.76Y-57.252
X241.935Y-16.929
X241.935Y-40.741
X243.522Y-76.301
X248.285Y-14.389
X248.285Y-38.201
X251.46Y-59.791
X253.841Y-116.941
X257.81Y-57.252
X260.191Y-114.401
X260.985Y-16.929
X263.366Y-97.891
X267.335Y-14.389
X268.129Y-78.841
X269.716Y-95.352
X270.51Y-40.741
X274.479Y-76.301
X275.272Y-59.791
X276.86Y-38.201
X277.654Y-116.941
X280.035Y-16.929
X281.623Y-57.252
X284.004Y-114.401
X286.385Y-14.389
X298.178Y-15.487
X298.178Y-19.892
X298.178Y-24.297
X298.178Y-28.702
X298.178Y-33.108
X305.178Y-15.487
X305.178Y-19.892
X305.178Y-24.297
X305.178Y-28.702
X305.178Y-33.108
X330.911Y-40.678
X330.911Y-116.878
X337.261Y-38.138
X337.261Y-114.338
X349.961Y-21.628
X349.961Y-40.678
X349.961Y-59.728
X349.961Y-97.828
X349.961Y-116.878
X356.311Y-19.088
X356.311Y-38.138
X356.311Y-57.188
X356.311Y-95.288
X356.311Y-114.338
X360.222Y-86.719
X367.222Y-86.719
X369.011Y-40.678
X369.011Y-116.878
X375.361Y-38.138
X375.361Y-114.338
T8
X163.5Y-138.0
X167.0Y-138.0
X360.25Y-78.92
X360.25Y-82.42
T3
X193.29Y-2.59G85X193.29Y-1.79
G05
X193.29Y-6.91G85X193.29Y-5.81
G05
X201.94Y-2.59G85X201.94Y-1.79
G05
X201.94Y-6.91G85X201.94Y-5.81
G05
M30
