%TF.GenerationSoftware,KiCad,Pcbnew,9.0.8*%
%TF.CreationDate,2026-04-22T20:55:03-07:00*%
%TF.ProjectId,Keyboard - Ayaan,4b657962-6f61-4726-9420-2d2041796161,rev?*%
%TF.SameCoordinates,Original*%
%TF.FileFunction,Paste,Bot*%
%TF.FilePolarity,Positive*%
%FSLAX46Y46*%
G04 Gerber Fmt 4.6, Leading zero omitted, Abs format (unit mm)*
G04 Created by KiCad (PCBNEW 9.0.8) date 2026-04-22 20:55:03*
%MOMM*%
%LPD*%
G01*
G04 APERTURE LIST*
G04 Aperture macros list*
%AMRoundRect*
0 Rectangle with rounded corners*
0 $1 Rounding radius*
0 $2 $3 $4 $5 $6 $7 $8 $9 X,Y pos of 4 corners*
0 Add a 4 corners polygon primitive as box body*
4,1,4,$2,$3,$4,$5,$6,$7,$8,$9,$2,$3,0*
0 Add four circle primitives for the rounded corners*
1,1,$1+$1,$2,$3*
1,1,$1+$1,$4,$5*
1,1,$1+$1,$6,$7*
1,1,$1+$1,$8,$9*
0 Add four rect primitives between the rounded corners*
20,1,$1+$1,$2,$3,$4,$5,0*
20,1,$1+$1,$4,$5,$6,$7,0*
20,1,$1+$1,$6,$7,$8,$9,0*
20,1,$1+$1,$8,$9,$2,$3,0*%
G04 Aperture macros list end*
%ADD10RoundRect,0.250000X0.300000X-0.300000X0.300000X0.300000X-0.300000X0.300000X-0.300000X-0.300000X0*%
%ADD11RoundRect,0.025000X0.100000X0.145000X-0.100000X0.145000X-0.100000X-0.145000X0.100000X-0.145000X0*%
%ADD12RoundRect,0.106000X0.644000X0.424000X-0.644000X0.424000X-0.644000X-0.424000X0.644000X-0.424000X0*%
%ADD13RoundRect,0.060000X0.240000X0.060000X-0.240000X0.060000X-0.240000X-0.060000X0.240000X-0.060000X0*%
%ADD14R,0.980000X3.400000*%
%ADD15RoundRect,0.140000X0.205000X0.140000X-0.205000X0.140000X-0.205000X-0.140000X0.205000X-0.140000X0*%
%ADD16RoundRect,0.062500X0.337500X0.062500X-0.337500X0.062500X-0.337500X-0.062500X0.337500X-0.062500X0*%
G04 APERTURE END LIST*
D10*
%TO.C,D53*%
X150812500Y-86781500D03*
X150812500Y-83981500D03*
%TD*%
%TO.C,D10*%
X231775000Y-24869000D03*
X231775000Y-22069000D03*
%TD*%
%TO.C,D73*%
X24606300Y-124881500D03*
X24606300Y-122081500D03*
%TD*%
%TO.C,D13*%
X288925000Y-24869000D03*
X288925000Y-22069000D03*
%TD*%
%TO.C,D83*%
X377901200Y-124818000D03*
X377901200Y-122018000D03*
%TD*%
%TO.C,D51*%
X112712500Y-86781500D03*
X112712500Y-83981500D03*
%TD*%
%TO.C,D63*%
X103187500Y-105831500D03*
X103187500Y-103031500D03*
%TD*%
%TO.C,D50*%
X93662500Y-86781500D03*
X93662500Y-83981500D03*
%TD*%
%TO.C,D48*%
X55562500Y-86781500D03*
X55562500Y-83981500D03*
%TD*%
%TO.C,D47*%
X29368800Y-86781500D03*
X29368800Y-83981500D03*
%TD*%
D11*
%TO.C,U5*%
X375332380Y-74700000D03*
X375332380Y-71640000D03*
D12*
X375082380Y-73800000D03*
X375082380Y-72540000D03*
D11*
X374832380Y-74700000D03*
X374832380Y-71640000D03*
D13*
X376482380Y-72170000D03*
X376482380Y-72670000D03*
X376482380Y-73170000D03*
X376482380Y-73670000D03*
X376482380Y-74170000D03*
X373682380Y-74170000D03*
X373682380Y-73670000D03*
X373682380Y-73170000D03*
X373682380Y-72670000D03*
X373682380Y-72170000D03*
%TD*%
D10*
%TO.C,D44*%
X260350000Y-67731500D03*
X260350000Y-64931500D03*
%TD*%
%TO.C,D68*%
X198437500Y-105831500D03*
X198437500Y-103031500D03*
%TD*%
%TO.C,D57*%
X227012500Y-86781500D03*
X227012500Y-83981500D03*
%TD*%
%TO.C,D81*%
X339801200Y-124818000D03*
X339801200Y-122018000D03*
%TD*%
%TO.C,D25*%
X212725000Y-48681500D03*
X212725000Y-45881500D03*
%TD*%
%TO.C,D67*%
X179387500Y-105831500D03*
X179387500Y-103031500D03*
%TD*%
%TO.C,D4*%
X88900000Y-24869000D03*
X88900000Y-22069000D03*
%TD*%
%TO.C,D37*%
X127000000Y-67731500D03*
X127000000Y-64931500D03*
%TD*%
%TO.C,D62*%
X84137500Y-105831500D03*
X84137500Y-103031500D03*
%TD*%
%TO.C,D82*%
X358851200Y-124818000D03*
X358851200Y-122018000D03*
%TD*%
%TO.C,D71*%
X272256300Y-105831500D03*
X272256300Y-103031500D03*
%TD*%
%TO.C,D5*%
X107950000Y-24869000D03*
X107950000Y-22069000D03*
%TD*%
%TO.C,D60*%
X34131300Y-105831500D03*
X34131300Y-103031500D03*
%TD*%
%TO.C,D17*%
X60325000Y-48681500D03*
X60325000Y-45881500D03*
%TD*%
%TO.C,D52*%
X131762500Y-86781500D03*
X131762500Y-83981500D03*
%TD*%
%TO.C,D39*%
X165100000Y-67731500D03*
X165100000Y-64931500D03*
%TD*%
%TO.C,D38*%
X146050000Y-67731500D03*
X146050000Y-64931500D03*
%TD*%
%TO.C,D61*%
X65087500Y-105831500D03*
X65087500Y-103031500D03*
%TD*%
%TO.C,D78*%
X238918800Y-124881500D03*
X238918800Y-122081500D03*
%TD*%
%TO.C,D77*%
X215106300Y-124881500D03*
X215106300Y-122081500D03*
%TD*%
%TO.C,D64*%
X122237500Y-105831500D03*
X122237500Y-103031500D03*
%TD*%
%TO.C,D70*%
X236537500Y-105831500D03*
X236537500Y-103031500D03*
%TD*%
%TO.C,D58*%
X246062500Y-86781500D03*
X246062500Y-83981500D03*
%TD*%
%TO.C,D76*%
X143668800Y-124881500D03*
X143668800Y-122081500D03*
%TD*%
%TO.C,D40*%
X184150000Y-67731500D03*
X184150000Y-64931500D03*
%TD*%
%TO.C,D32*%
X26987500Y-67731500D03*
X26987500Y-64931500D03*
%TD*%
%TO.C,D22*%
X155575000Y-48681500D03*
X155575000Y-45881500D03*
%TD*%
%TO.C,D42*%
X222250000Y-67731500D03*
X222250000Y-64931500D03*
%TD*%
%TO.C,D45*%
X284162500Y-67731500D03*
X284162500Y-64931500D03*
%TD*%
%TO.C,D9*%
X198437500Y-24869000D03*
X198437500Y-22069000D03*
%TD*%
%TO.C,D29*%
X339801200Y-48618000D03*
X339801200Y-45818000D03*
%TD*%
%TO.C,D75*%
X72231300Y-124881500D03*
X72231300Y-122081500D03*
%TD*%
%TO.C,D34*%
X69850000Y-67731500D03*
X69850000Y-64931500D03*
%TD*%
%TO.C,D12*%
X269875000Y-24869000D03*
X269875000Y-22069000D03*
%TD*%
%TO.C,D69*%
X217487500Y-105831500D03*
X217487500Y-103031500D03*
%TD*%
%TO.C,D80*%
X286543800Y-124881500D03*
X286543800Y-122081500D03*
%TD*%
%TO.C,D8*%
X179387500Y-24869000D03*
X179387500Y-22069000D03*
%TD*%
%TO.C,D2*%
X50800000Y-24869000D03*
X50800000Y-22069000D03*
%TD*%
%TO.C,D28*%
X279400000Y-48681500D03*
X279400000Y-45881500D03*
%TD*%
%TO.C,D15*%
X22225000Y-48681500D03*
X22225000Y-45881500D03*
%TD*%
%TO.C,D46*%
X358851200Y-67668000D03*
X358851200Y-64868000D03*
%TD*%
%TO.C,D74*%
X48418800Y-124881500D03*
X48418800Y-122081500D03*
%TD*%
%TO.C,D79*%
X262731300Y-124881500D03*
X262731300Y-122081500D03*
%TD*%
%TO.C,D41*%
X203200000Y-67731500D03*
X203200000Y-64931500D03*
%TD*%
%TO.C,D30*%
X358851200Y-48618000D03*
X358851200Y-45818000D03*
%TD*%
%TO.C,D35*%
X88900000Y-67731500D03*
X88900000Y-64931500D03*
%TD*%
%TO.C,D56*%
X207962500Y-86781500D03*
X207962500Y-83981500D03*
%TD*%
%TO.C,D59*%
X277018800Y-86781500D03*
X277018800Y-83981500D03*
%TD*%
%TO.C,D54*%
X169862500Y-86781500D03*
X169862500Y-83981500D03*
%TD*%
%TO.C,D55*%
X188912500Y-86781500D03*
X188912500Y-83981500D03*
%TD*%
%TO.C,D49*%
X74612500Y-86781500D03*
X74612500Y-83981500D03*
%TD*%
%TO.C,D19*%
X98425000Y-48681500D03*
X98425000Y-45881500D03*
%TD*%
%TO.C,D72*%
X358851200Y-105768000D03*
X358851200Y-102968000D03*
%TD*%
%TO.C,D3*%
X69850000Y-24869000D03*
X69850000Y-22069000D03*
%TD*%
%TO.C,D26*%
X231775000Y-48681500D03*
X231775000Y-45881500D03*
%TD*%
%TO.C,D27*%
X250825000Y-48681500D03*
X250825000Y-45881500D03*
%TD*%
%TO.C,D65*%
X141287500Y-105831500D03*
X141287500Y-103031500D03*
%TD*%
%TO.C,D21*%
X136525000Y-48681500D03*
X136525000Y-45881500D03*
%TD*%
%TO.C,D23*%
X174625000Y-48681500D03*
X174625000Y-45881500D03*
%TD*%
%TO.C,D16*%
X41275000Y-48681500D03*
X41275000Y-45881500D03*
%TD*%
%TO.C,D31*%
X377901200Y-48618000D03*
X377901200Y-45818000D03*
%TD*%
%TO.C,D24*%
X193675000Y-48681500D03*
X193675000Y-45881500D03*
%TD*%
%TO.C,D66*%
X160337500Y-105831500D03*
X160337500Y-103031500D03*
%TD*%
%TO.C,D18*%
X79375000Y-48681500D03*
X79375000Y-45881500D03*
%TD*%
%TO.C,D6*%
X141287500Y-24869000D03*
X141287500Y-22069000D03*
%TD*%
%TO.C,D1*%
X22225000Y-24869000D03*
X22225000Y-22069000D03*
%TD*%
%TO.C,D11*%
X250825000Y-24869000D03*
X250825000Y-22069000D03*
%TD*%
%TO.C,D20*%
X117475000Y-48681500D03*
X117475000Y-45881500D03*
%TD*%
%TO.C,D7*%
X160337500Y-24869000D03*
X160337500Y-22069000D03*
%TD*%
%TO.C,D33*%
X50800000Y-67731500D03*
X50800000Y-64931500D03*
%TD*%
D14*
%TO.C,L2*%
X376507380Y-82000000D03*
X374137380Y-82000000D03*
%TD*%
D15*
%TO.C,U8*%
X375167380Y-90640000D03*
X375167380Y-89940000D03*
X374317380Y-90640000D03*
X374317380Y-89940000D03*
D16*
X376192380Y-89540000D03*
X376192380Y-90040000D03*
X376192380Y-90540000D03*
X376192380Y-91040000D03*
X373292380Y-91040000D03*
X373292380Y-90540000D03*
X373292380Y-90040000D03*
X373292380Y-89540000D03*
%TD*%
D10*
%TO.C,D14*%
X358851200Y-29568000D03*
X358851200Y-26768000D03*
%TD*%
%TO.C,D36*%
X107950000Y-67731500D03*
X107950000Y-64931500D03*
%TD*%
%TO.C,D43*%
X241300000Y-67731500D03*
X241300000Y-64931500D03*
%TD*%
M02*
