%TF.GenerationSoftware,KiCad,Pcbnew,9.0.8*%
%TF.CreationDate,2026-04-22T20:55:03-07:00*%
%TF.ProjectId,Keyboard - Ayaan,4b657962-6f61-4726-9420-2d2041796161,rev?*%
%TF.SameCoordinates,Original*%
%TF.FileFunction,Soldermask,Bot*%
%TF.FilePolarity,Negative*%
%FSLAX46Y46*%
G04 Gerber Fmt 4.6, Leading zero omitted, Abs format (unit mm)*
G04 Created by KiCad (PCBNEW 9.0.8) date 2026-04-22 20:55:03*
%MOMM*%
%LPD*%
G01*
G04 APERTURE LIST*
G04 Aperture macros list*
%AMRoundRect*
0 Rectangle with rounded corners*
0 $1 Rounding radius*
0 $2 $3 $4 $5 $6 $7 $8 $9 X,Y pos of 4 corners*
0 Add a 4 corners polygon primitive as box body*
4,1,4,$2,$3,$4,$5,$6,$7,$8,$9,$2,$3,0*
0 Add four circle primitives for the rounded corners*
1,1,$1+$1,$2,$3*
1,1,$1+$1,$4,$5*
1,1,$1+$1,$6,$7*
1,1,$1+$1,$8,$9*
0 Add four rect primitives between the rounded corners*
20,1,$1+$1,$2,$3,$4,$5,0*
20,1,$1+$1,$4,$5,$6,$7,0*
20,1,$1+$1,$6,$7,$8,$9,0*
20,1,$1+$1,$8,$9,$2,$3,0*%
%AMFreePoly0*
4,1,21,-0.125000,1.200000,0.125000,1.200000,0.125000,1.700000,0.375000,1.700000,0.375000,1.200000,0.825000,1.200000,0.825000,-1.200000,0.375000,-1.200000,0.375000,-1.700000,0.125000,-1.700000,0.125000,-1.200000,-0.125000,-1.200000,-0.125000,-1.700000,-0.375000,-1.700000,-0.375000,-1.200000,-0.825000,-1.200000,-0.825000,1.200000,-0.375000,1.200000,-0.375000,1.700000,-0.125000,1.700000,
-0.125000,1.200000,-0.125000,1.200000,$1*%
G04 Aperture macros list end*
%ADD10C,1.750000*%
%ADD11C,4.000000*%
%ADD12C,2.500000*%
%ADD13R,1.800000X1.800000*%
%ADD14C,1.800000*%
%ADD15RoundRect,0.102000X-0.765000X-0.765000X0.765000X-0.765000X0.765000X0.765000X-0.765000X0.765000X0*%
%ADD16C,1.734000*%
%ADD17C,2.200000*%
%ADD18C,3.048000*%
%ADD19C,3.987800*%
%ADD20C,1.500000*%
%ADD21C,0.600000*%
%ADD22O,1.104000X2.204000*%
%ADD23O,1.104000X1.904000*%
%ADD24RoundRect,0.250000X0.300000X-0.300000X0.300000X0.300000X-0.300000X0.300000X-0.300000X-0.300000X0*%
%ADD25RoundRect,0.060000X0.240000X0.060000X-0.240000X0.060000X-0.240000X-0.060000X0.240000X-0.060000X0*%
%ADD26FreePoly0,180.000000*%
%ADD27RoundRect,0.102000X0.490000X1.700000X-0.490000X1.700000X-0.490000X-1.700000X0.490000X-1.700000X0*%
%ADD28RoundRect,0.062500X0.337500X0.062500X-0.337500X0.062500X-0.337500X-0.062500X0.337500X-0.062500X0*%
%ADD29R,1.700000X1.400000*%
G04 APERTURE END LIST*
D10*
%TO.C,SW65*%
X131127500Y-100431500D03*
D11*
X136207500Y-100431500D03*
D10*
X141287500Y-100431500D03*
D12*
X132397500Y-97891500D03*
X138747500Y-95351500D03*
%TD*%
D10*
%TO.C,SW5*%
X97790000Y-19469000D03*
D11*
X102870000Y-19469000D03*
D10*
X107950000Y-19469000D03*
D12*
X99060000Y-16929000D03*
X105410000Y-14389000D03*
%TD*%
D10*
%TO.C,SW12*%
X259715000Y-19469000D03*
D11*
X264795000Y-19469000D03*
D10*
X269875000Y-19469000D03*
D12*
X260985000Y-16929000D03*
X267335000Y-14389000D03*
%TD*%
D10*
%TO.C,SW36*%
X97790000Y-62331500D03*
D11*
X102870000Y-62331500D03*
D10*
X107950000Y-62331500D03*
D12*
X99060000Y-59791500D03*
X105410000Y-57251500D03*
%TD*%
D10*
%TO.C,SW56*%
X197802500Y-81381500D03*
D11*
X202882500Y-81381500D03*
D10*
X207962500Y-81381500D03*
D12*
X199072500Y-78841500D03*
X205422500Y-76301500D03*
%TD*%
D10*
%TO.C,SW18*%
X69215000Y-43281500D03*
D11*
X74295000Y-43281500D03*
D10*
X79375000Y-43281500D03*
D12*
X70485000Y-40741500D03*
X76835000Y-38201500D03*
%TD*%
D10*
%TO.C,SW76*%
X133508800Y-119481500D03*
D11*
X138588800Y-119481500D03*
D10*
X143668800Y-119481500D03*
D12*
X134778800Y-116941500D03*
X141128800Y-114401500D03*
%TD*%
D13*
%TO.C,U11*%
X367375000Y-7057000D03*
D14*
X369915000Y-7057000D03*
%TD*%
D10*
%TO.C,SW57*%
X216852500Y-81381500D03*
D11*
X221932500Y-81381500D03*
D10*
X227012500Y-81381500D03*
D12*
X218122500Y-78841500D03*
X224472500Y-76301500D03*
%TD*%
D10*
%TO.C,SW15*%
X12065000Y-43281500D03*
D11*
X17145000Y-43281500D03*
D10*
X22225000Y-43281500D03*
D12*
X13335000Y-40741500D03*
X19685000Y-38201500D03*
%TD*%
D15*
%TO.C,U1*%
X297820000Y-67150000D03*
D16*
X297820000Y-69690000D03*
X297820000Y-72230000D03*
X297820000Y-74770000D03*
X297820000Y-77310000D03*
X297820000Y-79850000D03*
X297820000Y-82390000D03*
X297820000Y-84930000D03*
X297820000Y-87470000D03*
X297820000Y-90010000D03*
X297820000Y-92550000D03*
X297820000Y-95090000D03*
X297820000Y-97630000D03*
X297820000Y-100170000D03*
X297820000Y-102710000D03*
X297820000Y-105250000D03*
X297820000Y-107790000D03*
X297820000Y-110330000D03*
X297820000Y-112870000D03*
X297820000Y-115410000D03*
X297820000Y-117950000D03*
X297820000Y-120490000D03*
X320680000Y-67150000D03*
X320680000Y-69690000D03*
X320680000Y-72230000D03*
X320680000Y-74770000D03*
X320680000Y-77310000D03*
X320680000Y-79850000D03*
X320680000Y-82390000D03*
X320680000Y-84930000D03*
X320680000Y-87470000D03*
X320680000Y-90010000D03*
X320680000Y-92550000D03*
X320680000Y-95090000D03*
X320680000Y-97630000D03*
X320680000Y-100170000D03*
X320680000Y-102710000D03*
X320680000Y-105250000D03*
X320680000Y-107790000D03*
X320680000Y-110330000D03*
X320680000Y-112870000D03*
X320680000Y-115410000D03*
X320680000Y-117950000D03*
X320680000Y-120490000D03*
%TD*%
D12*
%TO.C,U4*%
X360250000Y-78920000D03*
X360250000Y-82420000D03*
%TD*%
D10*
%TO.C,SW73*%
X14446300Y-119481500D03*
D11*
X19526300Y-119481500D03*
D10*
X24606300Y-119481500D03*
D12*
X15716300Y-116941500D03*
X22066300Y-114401500D03*
%TD*%
D10*
%TO.C,SW50*%
X83502500Y-81381500D03*
D11*
X88582500Y-81381500D03*
D10*
X93662500Y-81381500D03*
D12*
X84772500Y-78841500D03*
X91122500Y-76301500D03*
%TD*%
D10*
%TO.C,SW53*%
X140652500Y-81381500D03*
D11*
X145732500Y-81381500D03*
D10*
X150812500Y-81381500D03*
D12*
X141922500Y-78841500D03*
X148272500Y-76301500D03*
%TD*%
D10*
%TO.C,SW21*%
X126365000Y-43281500D03*
D11*
X131445000Y-43281500D03*
D10*
X136525000Y-43281500D03*
D12*
X127635000Y-40741500D03*
X133985000Y-38201500D03*
%TD*%
D10*
%TO.C,SW42*%
X212090000Y-62331500D03*
D11*
X217170000Y-62331500D03*
D10*
X222250000Y-62331500D03*
D12*
X213360000Y-59791500D03*
X219710000Y-57251500D03*
%TD*%
D10*
%TO.C,SW4*%
X78740000Y-19469000D03*
D11*
X83820000Y-19469000D03*
D10*
X88900000Y-19469000D03*
D12*
X80010000Y-16929000D03*
X86360000Y-14389000D03*
%TD*%
D10*
%TO.C,SW11*%
X240665000Y-19469000D03*
D11*
X245745000Y-19469000D03*
D10*
X250825000Y-19469000D03*
D12*
X241935000Y-16929000D03*
X248285000Y-14389000D03*
%TD*%
D10*
%TO.C,SW58*%
X235902500Y-81381500D03*
D11*
X240982500Y-81381500D03*
D10*
X246062500Y-81381500D03*
D12*
X237172500Y-78841500D03*
X243522500Y-76301500D03*
%TD*%
D10*
%TO.C,SW25*%
X202565000Y-43281500D03*
D11*
X207645000Y-43281500D03*
D10*
X212725000Y-43281500D03*
D12*
X203835000Y-40741500D03*
X210185000Y-38201500D03*
%TD*%
D10*
%TO.C,SW2*%
X40640000Y-19469000D03*
D11*
X45720000Y-19469000D03*
D10*
X50800000Y-19469000D03*
D12*
X41910000Y-16929000D03*
X48260000Y-14389000D03*
%TD*%
D17*
%TO.C,H3*%
X6000000Y-5000000D03*
%TD*%
D10*
%TO.C,SW54*%
X159702500Y-81381500D03*
D11*
X164782500Y-81381500D03*
D10*
X169862500Y-81381500D03*
D12*
X160972500Y-78841500D03*
X167322500Y-76301500D03*
%TD*%
D10*
%TO.C,SW71*%
X262096300Y-100431500D03*
D11*
X267176300Y-100431500D03*
D10*
X272256300Y-100431500D03*
D12*
X263366300Y-97891500D03*
X269716300Y-95351500D03*
%TD*%
D17*
%TO.C,H4*%
X303000000Y-6000000D03*
%TD*%
D10*
%TO.C,SW14*%
X348691200Y-24168000D03*
D11*
X353771200Y-24168000D03*
D10*
X358851200Y-24168000D03*
D12*
X349961200Y-21628000D03*
X356311200Y-19088000D03*
%TD*%
D10*
%TO.C,SW47*%
X19208800Y-81381500D03*
D11*
X24288800Y-81381500D03*
D10*
X29368800Y-81381500D03*
D12*
X20478800Y-78841500D03*
X26828800Y-76301500D03*
%TD*%
D18*
%TO.C,2u_REF_2*%
X262323750Y-36175000D03*
D19*
X262323750Y-51415000D03*
D18*
X286136250Y-36175000D03*
D19*
X286136250Y-51415000D03*
%TD*%
D10*
%TO.C,SW1*%
X12065000Y-19469000D03*
D11*
X17145000Y-19469000D03*
D10*
X22225000Y-19469000D03*
D12*
X13335000Y-16929000D03*
X19685000Y-14389000D03*
%TD*%
D10*
%TO.C,SW27*%
X240665000Y-43281500D03*
D11*
X245745000Y-43281500D03*
D10*
X250825000Y-43281500D03*
D12*
X241935000Y-40741500D03*
X248285000Y-38201500D03*
%TD*%
D10*
%TO.C,SW29*%
X329641200Y-43218000D03*
D11*
X334721200Y-43218000D03*
D10*
X339801200Y-43218000D03*
D12*
X330911200Y-40678000D03*
X337261200Y-38138000D03*
%TD*%
D10*
%TO.C,SW62*%
X73977500Y-100431500D03*
D11*
X79057500Y-100431500D03*
D10*
X84137500Y-100431500D03*
D12*
X75247500Y-97891500D03*
X81597500Y-95351500D03*
%TD*%
D10*
%TO.C,SW38*%
X135890000Y-62331500D03*
D11*
X140970000Y-62331500D03*
D10*
X146050000Y-62331500D03*
D12*
X137160000Y-59791500D03*
X143510000Y-57251500D03*
%TD*%
D10*
%TO.C,SW52*%
X121602500Y-81381500D03*
D11*
X126682500Y-81381500D03*
D10*
X131762500Y-81381500D03*
D12*
X122872500Y-78841500D03*
X129222500Y-76301500D03*
%TD*%
D10*
%TO.C,SW39*%
X154940000Y-62331500D03*
D11*
X160020000Y-62331500D03*
D10*
X165100000Y-62331500D03*
D12*
X156210000Y-59791500D03*
X162560000Y-57251500D03*
%TD*%
%TO.C,U6*%
X3546700Y-82021300D03*
X3546700Y-86021300D03*
X3546700Y-90021300D03*
%TD*%
D18*
%TO.C,6.25u_REF*%
X88597550Y-112480000D03*
D19*
X88597550Y-127720000D03*
D18*
X188610050Y-112480000D03*
D19*
X188610050Y-127720000D03*
%TD*%
D10*
%TO.C,SW8*%
X169227500Y-19469000D03*
D11*
X174307500Y-19469000D03*
D10*
X179387500Y-19469000D03*
D12*
X170497500Y-16929000D03*
X176847500Y-14389000D03*
%TD*%
D17*
%TO.C,H2*%
X7000000Y-142000000D03*
%TD*%
D10*
%TO.C,SW83*%
X367741200Y-119418000D03*
D11*
X372821200Y-119418000D03*
D10*
X377901200Y-119418000D03*
D12*
X369011200Y-116878000D03*
X375361200Y-114338000D03*
%TD*%
D10*
%TO.C,SW41*%
X193040000Y-62331500D03*
D11*
X198120000Y-62331500D03*
D10*
X203200000Y-62331500D03*
D12*
X194310000Y-59791500D03*
X200660000Y-57251500D03*
%TD*%
D10*
%TO.C,SW3*%
X59690000Y-19469000D03*
D11*
X64770000Y-19469000D03*
D10*
X69850000Y-19469000D03*
D12*
X60960000Y-16929000D03*
X67310000Y-14389000D03*
%TD*%
D10*
%TO.C,SW32*%
X16827500Y-62331500D03*
D11*
X21907500Y-62331500D03*
D10*
X26987500Y-62331500D03*
D12*
X18097500Y-59791500D03*
X24447500Y-57251500D03*
%TD*%
D10*
%TO.C,SW81*%
X329641200Y-119418000D03*
D11*
X334721200Y-119418000D03*
D10*
X339801200Y-119418000D03*
D12*
X330911200Y-116878000D03*
X337261200Y-114338000D03*
%TD*%
D10*
%TO.C,SW75*%
X62071300Y-119481500D03*
D11*
X67151300Y-119481500D03*
D10*
X72231300Y-119481500D03*
D12*
X63341300Y-116941500D03*
X69691300Y-114401500D03*
%TD*%
D10*
%TO.C,SW23*%
X164465000Y-43281500D03*
D11*
X169545000Y-43281500D03*
D10*
X174625000Y-43281500D03*
D12*
X165735000Y-40741500D03*
X172085000Y-38201500D03*
%TD*%
D10*
%TO.C,SW20*%
X107315000Y-43281500D03*
D11*
X112395000Y-43281500D03*
D10*
X117475000Y-43281500D03*
D12*
X108585000Y-40741500D03*
X114935000Y-38201500D03*
%TD*%
D10*
%TO.C,SW16*%
X31115000Y-43281500D03*
D11*
X36195000Y-43281500D03*
D10*
X41275000Y-43281500D03*
D12*
X32385000Y-40741500D03*
X38735000Y-38201500D03*
%TD*%
D10*
%TO.C,SW77*%
X204946300Y-119481500D03*
D11*
X210026300Y-119481500D03*
D10*
X215106300Y-119481500D03*
D12*
X206216300Y-116941500D03*
X212566300Y-114401500D03*
%TD*%
D10*
%TO.C,SW61*%
X54927500Y-100431500D03*
D11*
X60007500Y-100431500D03*
D10*
X65087500Y-100431500D03*
D12*
X56197500Y-97891500D03*
X62547500Y-95351500D03*
%TD*%
D10*
%TO.C,SW68*%
X188277500Y-100431500D03*
D11*
X193357500Y-100431500D03*
D10*
X198437500Y-100431500D03*
D12*
X189547500Y-97891500D03*
X195897500Y-95351500D03*
%TD*%
D10*
%TO.C,SW44*%
X250190000Y-62331500D03*
D11*
X255270000Y-62331500D03*
D10*
X260350000Y-62331500D03*
D12*
X251460000Y-59791500D03*
X257810000Y-57251500D03*
%TD*%
D10*
%TO.C,SW60*%
X23971300Y-100431500D03*
D11*
X29051300Y-100431500D03*
D10*
X34131300Y-100431500D03*
D12*
X25241300Y-97891500D03*
X31591300Y-95351500D03*
%TD*%
D10*
%TO.C,SW49*%
X64452500Y-81381500D03*
D11*
X69532500Y-81381500D03*
D10*
X74612500Y-81381500D03*
D12*
X65722500Y-78841500D03*
X72072500Y-76301500D03*
%TD*%
D10*
%TO.C,SW31*%
X367741200Y-43218000D03*
D11*
X372821200Y-43218000D03*
D10*
X377901200Y-43218000D03*
D12*
X369011200Y-40678000D03*
X375361200Y-38138000D03*
%TD*%
D10*
%TO.C,SW28*%
X269240000Y-43281500D03*
D11*
X274320000Y-43281500D03*
D10*
X279400000Y-43281500D03*
D12*
X270510000Y-40741500D03*
X276860000Y-38201500D03*
%TD*%
D10*
%TO.C,SW19*%
X88265000Y-43281500D03*
D11*
X93345000Y-43281500D03*
D10*
X98425000Y-43281500D03*
D12*
X89535000Y-40741500D03*
X95885000Y-38201500D03*
%TD*%
D10*
%TO.C,SW80*%
X276383800Y-119481500D03*
D11*
X281463800Y-119481500D03*
D10*
X286543800Y-119481500D03*
D12*
X277653800Y-116941500D03*
X284003800Y-114401500D03*
%TD*%
D10*
%TO.C,SW22*%
X145415000Y-43281500D03*
D11*
X150495000Y-43281500D03*
D10*
X155575000Y-43281500D03*
D12*
X146685000Y-40741500D03*
X153035000Y-38201500D03*
%TD*%
D10*
%TO.C,SW51*%
X102552500Y-81381500D03*
D11*
X107632500Y-81381500D03*
D10*
X112712500Y-81381500D03*
D12*
X103822500Y-78841500D03*
X110172500Y-76301500D03*
%TD*%
D10*
%TO.C,SW63*%
X93027500Y-100431500D03*
D11*
X98107500Y-100431500D03*
D10*
X103187500Y-100431500D03*
D12*
X94297500Y-97891500D03*
X100647500Y-95351500D03*
%TD*%
D10*
%TO.C,SW26*%
X221615000Y-43281500D03*
D11*
X226695000Y-43281500D03*
D10*
X231775000Y-43281500D03*
D12*
X222885000Y-40741500D03*
X229235000Y-38201500D03*
%TD*%
D13*
%TO.C,U7*%
X382000000Y-7000000D03*
D14*
X384540000Y-7000000D03*
%TD*%
D10*
%TO.C,SW64*%
X112077500Y-100431500D03*
D11*
X117157500Y-100431500D03*
D10*
X122237500Y-100431500D03*
D12*
X113347500Y-97891500D03*
X119697500Y-95351500D03*
%TD*%
D10*
%TO.C,SW43*%
X231140000Y-62331500D03*
D11*
X236220000Y-62331500D03*
D10*
X241300000Y-62331500D03*
D12*
X232410000Y-59791500D03*
X238760000Y-57251500D03*
%TD*%
D10*
%TO.C,SW37*%
X116840000Y-62331500D03*
D11*
X121920000Y-62331500D03*
D10*
X127000000Y-62331500D03*
D12*
X118110000Y-59791500D03*
X124460000Y-57251500D03*
%TD*%
D10*
%TO.C,SW55*%
X178752500Y-81381500D03*
D11*
X183832500Y-81381500D03*
D10*
X188912500Y-81381500D03*
D12*
X180022500Y-78841500D03*
X186372500Y-76301500D03*
%TD*%
D18*
%TO.C,2.75u_REF*%
X255317550Y-93450000D03*
D19*
X255317550Y-108690000D03*
D18*
X279130050Y-93450000D03*
D19*
X279130050Y-108690000D03*
%TD*%
D10*
%TO.C,SW33*%
X40640000Y-62331500D03*
D11*
X45720000Y-62331500D03*
D10*
X50800000Y-62331500D03*
D12*
X41910000Y-59791500D03*
X48260000Y-57251500D03*
%TD*%
D20*
%TO.C,R7*%
X323989000Y-15888000D03*
X332989000Y-15888000D03*
%TD*%
D10*
%TO.C,SW17*%
X50165000Y-43281500D03*
D11*
X55245000Y-43281500D03*
D10*
X60325000Y-43281500D03*
D12*
X51435000Y-40741500D03*
X57785000Y-38201500D03*
%TD*%
D10*
%TO.C,SW70*%
X226377500Y-100431500D03*
D11*
X231457500Y-100431500D03*
D10*
X236537500Y-100431500D03*
D12*
X227647500Y-97891500D03*
X233997500Y-95351500D03*
%TD*%
D13*
%TO.C,U2*%
X374787000Y-7057000D03*
D14*
X377327000Y-7057000D03*
%TD*%
D10*
%TO.C,SW79*%
X252571300Y-119481500D03*
D11*
X257651300Y-119481500D03*
D10*
X262731300Y-119481500D03*
D12*
X253841300Y-116941500D03*
X260191300Y-114401500D03*
%TD*%
D21*
%TO.C,J1*%
X200505000Y-5870000D03*
X194725000Y-5870000D03*
D22*
X201940000Y-6360000D03*
X193290000Y-6360000D03*
D23*
X201940000Y-2190000D03*
X193290000Y-2190000D03*
%TD*%
D10*
%TO.C,SW78*%
X228758800Y-119481500D03*
D11*
X233838800Y-119481500D03*
D10*
X238918800Y-119481500D03*
D12*
X230028800Y-116941500D03*
X236378800Y-114401500D03*
%TD*%
D10*
%TO.C,SW69*%
X207327500Y-100431500D03*
D11*
X212407500Y-100431500D03*
D10*
X217487500Y-100431500D03*
D12*
X208597500Y-97891500D03*
X214947500Y-95351500D03*
%TD*%
D10*
%TO.C,SW48*%
X45402500Y-81381500D03*
D11*
X50482500Y-81381500D03*
D10*
X55562500Y-81381500D03*
D12*
X46672500Y-78841500D03*
X53022500Y-76301500D03*
%TD*%
D18*
%TO.C,2.25u_REF*%
X17253750Y-93465000D03*
D19*
X17253750Y-108705000D03*
D18*
X41066250Y-93465000D03*
D19*
X41066250Y-108705000D03*
%TD*%
D10*
%TO.C,SW10*%
X221615000Y-19469000D03*
D11*
X226695000Y-19469000D03*
D10*
X231775000Y-19469000D03*
D12*
X222885000Y-16929000D03*
X229235000Y-14389000D03*
%TD*%
D10*
%TO.C,SW34*%
X59690000Y-62331500D03*
D11*
X64770000Y-62331500D03*
D10*
X69850000Y-62331500D03*
D12*
X60960000Y-59791500D03*
X67310000Y-57251500D03*
%TD*%
D10*
%TO.C,SW35*%
X78740000Y-62331500D03*
D11*
X83820000Y-62331500D03*
D10*
X88900000Y-62331500D03*
D12*
X80010000Y-59791500D03*
X86360000Y-57251500D03*
%TD*%
D10*
%TO.C,SW74*%
X38258800Y-119481500D03*
D11*
X43338800Y-119481500D03*
D10*
X48418800Y-119481500D03*
D12*
X39528800Y-116941500D03*
X45878800Y-114401500D03*
%TD*%
D10*
%TO.C,SW30*%
X348691200Y-43218000D03*
D11*
X353771200Y-43218000D03*
D10*
X358851200Y-43218000D03*
D12*
X349961200Y-40678000D03*
X356311200Y-38138000D03*
%TD*%
%TO.C,U10*%
X163500000Y-138000000D03*
X167000000Y-138000000D03*
%TD*%
D10*
%TO.C,SW7*%
X150177500Y-19469000D03*
D11*
X155257500Y-19469000D03*
D10*
X160337500Y-19469000D03*
D12*
X151447500Y-16929000D03*
X157797500Y-14389000D03*
%TD*%
D10*
%TO.C,SW6*%
X131127500Y-19469000D03*
D11*
X136207500Y-19469000D03*
D10*
X141287500Y-19469000D03*
D12*
X132397500Y-16929000D03*
X138747500Y-14389000D03*
%TD*%
D10*
%TO.C,SW67*%
X169227500Y-100431500D03*
D11*
X174307500Y-100431500D03*
D10*
X179387500Y-100431500D03*
D12*
X170497500Y-97891500D03*
X176847500Y-95351500D03*
%TD*%
D10*
%TO.C,SW9*%
X188277500Y-19469000D03*
D11*
X193357500Y-19469000D03*
D10*
X198437500Y-19469000D03*
D12*
X189547500Y-16929000D03*
X195897500Y-14389000D03*
%TD*%
D10*
%TO.C,SW40*%
X173990000Y-62331500D03*
D11*
X179070000Y-62331500D03*
D10*
X184150000Y-62331500D03*
D12*
X175260000Y-59791500D03*
X181610000Y-57251500D03*
%TD*%
D10*
%TO.C,SW59*%
X266858800Y-81381500D03*
D11*
X271938800Y-81381500D03*
D10*
X277018800Y-81381500D03*
D12*
X268128800Y-78841500D03*
X274478800Y-76301500D03*
%TD*%
D10*
%TO.C,SW46*%
X348691200Y-62268000D03*
D11*
X353771200Y-62268000D03*
D10*
X358851200Y-62268000D03*
D12*
X349961200Y-59728000D03*
X356311200Y-57188000D03*
%TD*%
D18*
%TO.C,2.25u_REF_2*%
X260113750Y-74395000D03*
D19*
X260113750Y-89635000D03*
D18*
X283926250Y-74395000D03*
D19*
X283926250Y-89635000D03*
%TD*%
D10*
%TO.C,SW72*%
X348691200Y-100368000D03*
D11*
X353771200Y-100368000D03*
D10*
X358851200Y-100368000D03*
D12*
X349961200Y-97828000D03*
X356311200Y-95288000D03*
%TD*%
D10*
%TO.C,SW45*%
X274002500Y-62331500D03*
D11*
X279082500Y-62331500D03*
D10*
X284162500Y-62331500D03*
D12*
X275272500Y-59791500D03*
X281622500Y-57251500D03*
%TD*%
D10*
%TO.C,SW13*%
X278765000Y-19469000D03*
D11*
X283845000Y-19469000D03*
D10*
X288925000Y-19469000D03*
D12*
X280035000Y-16929000D03*
X286385000Y-14389000D03*
%TD*%
D10*
%TO.C,SW82*%
X348691200Y-119418000D03*
D11*
X353771200Y-119418000D03*
D10*
X358851200Y-119418000D03*
D12*
X349961200Y-116878000D03*
X356311200Y-114338000D03*
%TD*%
D10*
%TO.C,SW24*%
X183515000Y-43281500D03*
D11*
X188595000Y-43281500D03*
D10*
X193675000Y-43281500D03*
D12*
X184785000Y-40741500D03*
X191135000Y-38201500D03*
%TD*%
D17*
%TO.C,H1*%
X303000000Y-143000000D03*
%TD*%
D10*
%TO.C,SW66*%
X150177500Y-100431500D03*
D11*
X155257500Y-100431500D03*
D10*
X160337500Y-100431500D03*
D12*
X151447500Y-97891500D03*
X157797500Y-95351500D03*
%TD*%
D24*
%TO.C,D53*%
X150812500Y-86781500D03*
X150812500Y-83981500D03*
%TD*%
%TO.C,D10*%
X231775000Y-24869000D03*
X231775000Y-22069000D03*
%TD*%
%TO.C,D73*%
X24606300Y-124881500D03*
X24606300Y-122081500D03*
%TD*%
%TO.C,D13*%
X288925000Y-24869000D03*
X288925000Y-22069000D03*
%TD*%
%TO.C,D83*%
X377901200Y-124818000D03*
X377901200Y-122018000D03*
%TD*%
D20*
%TO.C,R2*%
X319511000Y-20945000D03*
X310511000Y-20945000D03*
%TD*%
D12*
%TO.C,C1*%
X305178500Y-15487500D03*
X298178500Y-15487500D03*
%TD*%
%TO.C,C6*%
X367222500Y-86719500D03*
X360222500Y-86719500D03*
%TD*%
D24*
%TO.C,D51*%
X112712500Y-86781500D03*
X112712500Y-83981500D03*
%TD*%
D20*
%TO.C,R8*%
X319553000Y-41245000D03*
X310553000Y-41245000D03*
%TD*%
D12*
%TO.C,C3*%
X305178500Y-24297500D03*
X298178500Y-24297500D03*
%TD*%
D24*
%TO.C,D63*%
X103187500Y-105831500D03*
X103187500Y-103031500D03*
%TD*%
%TO.C,D50*%
X93662500Y-86781500D03*
X93662500Y-83981500D03*
%TD*%
%TO.C,D48*%
X55562500Y-86781500D03*
X55562500Y-83981500D03*
%TD*%
%TO.C,D47*%
X29368800Y-86781500D03*
X29368800Y-83981500D03*
%TD*%
D12*
%TO.C,C2*%
X305178500Y-19892500D03*
X298178500Y-19892500D03*
%TD*%
D25*
%TO.C,U5*%
X376482380Y-72170000D03*
X376482380Y-72670000D03*
X376482380Y-73170000D03*
X376482380Y-73670000D03*
X376482380Y-74170000D03*
X373682380Y-74170000D03*
X373682380Y-73670000D03*
X373682380Y-73170000D03*
X373682380Y-72670000D03*
X373682380Y-72170000D03*
D26*
X375082380Y-73170000D03*
%TD*%
D24*
%TO.C,D44*%
X260350000Y-67731500D03*
X260350000Y-64931500D03*
%TD*%
%TO.C,D68*%
X198437500Y-105831500D03*
X198437500Y-103031500D03*
%TD*%
D12*
%TO.C,C5*%
X305178500Y-33107500D03*
X298178500Y-33107500D03*
%TD*%
D24*
%TO.C,D57*%
X227012500Y-86781500D03*
X227012500Y-83981500D03*
%TD*%
%TO.C,D81*%
X339801200Y-124818000D03*
X339801200Y-122018000D03*
%TD*%
D12*
%TO.C,C4*%
X305178500Y-28702500D03*
X298178500Y-28702500D03*
%TD*%
D24*
%TO.C,D25*%
X212725000Y-48681500D03*
X212725000Y-45881500D03*
%TD*%
%TO.C,D67*%
X179387500Y-105831500D03*
X179387500Y-103031500D03*
%TD*%
D20*
%TO.C,R4*%
X319511000Y-31045000D03*
X310511000Y-31045000D03*
%TD*%
D24*
%TO.C,D4*%
X88900000Y-24869000D03*
X88900000Y-22069000D03*
%TD*%
%TO.C,D37*%
X127000000Y-67731500D03*
X127000000Y-64931500D03*
%TD*%
%TO.C,D62*%
X84137500Y-105831500D03*
X84137500Y-103031500D03*
%TD*%
%TO.C,D82*%
X358851200Y-124818000D03*
X358851200Y-122018000D03*
%TD*%
%TO.C,D71*%
X272256300Y-105831500D03*
X272256300Y-103031500D03*
%TD*%
%TO.C,D5*%
X107950000Y-24869000D03*
X107950000Y-22069000D03*
%TD*%
%TO.C,D60*%
X34131300Y-105831500D03*
X34131300Y-103031500D03*
%TD*%
%TO.C,D17*%
X60325000Y-48681500D03*
X60325000Y-45881500D03*
%TD*%
%TO.C,D52*%
X131762500Y-86781500D03*
X131762500Y-83981500D03*
%TD*%
%TO.C,D39*%
X165100000Y-67731500D03*
X165100000Y-64931500D03*
%TD*%
%TO.C,D38*%
X146050000Y-67731500D03*
X146050000Y-64931500D03*
%TD*%
%TO.C,D61*%
X65087500Y-105831500D03*
X65087500Y-103031500D03*
%TD*%
%TO.C,D78*%
X238918800Y-124881500D03*
X238918800Y-122081500D03*
%TD*%
%TO.C,D77*%
X215106300Y-124881500D03*
X215106300Y-122081500D03*
%TD*%
%TO.C,D64*%
X122237500Y-105831500D03*
X122237500Y-103031500D03*
%TD*%
%TO.C,D70*%
X236537500Y-105831500D03*
X236537500Y-103031500D03*
%TD*%
%TO.C,D58*%
X246062500Y-86781500D03*
X246062500Y-83981500D03*
%TD*%
%TO.C,D76*%
X143668800Y-124881500D03*
X143668800Y-122081500D03*
%TD*%
D20*
%TO.C,R1*%
X319511000Y-15895000D03*
X310511000Y-15895000D03*
%TD*%
%TO.C,R3*%
X319511000Y-25995000D03*
X310511000Y-25995000D03*
%TD*%
D24*
%TO.C,D40*%
X184150000Y-67731500D03*
X184150000Y-64931500D03*
%TD*%
%TO.C,D32*%
X26987500Y-67731500D03*
X26987500Y-64931500D03*
%TD*%
%TO.C,D22*%
X155575000Y-48681500D03*
X155575000Y-45881500D03*
%TD*%
%TO.C,D42*%
X222250000Y-67731500D03*
X222250000Y-64931500D03*
%TD*%
%TO.C,D45*%
X284162500Y-67731500D03*
X284162500Y-64931500D03*
%TD*%
%TO.C,D9*%
X198437500Y-24869000D03*
X198437500Y-22069000D03*
%TD*%
%TO.C,D29*%
X339801200Y-48618000D03*
X339801200Y-45818000D03*
%TD*%
%TO.C,D75*%
X72231300Y-124881500D03*
X72231300Y-122081500D03*
%TD*%
%TO.C,D34*%
X69850000Y-67731500D03*
X69850000Y-64931500D03*
%TD*%
%TO.C,D12*%
X269875000Y-24869000D03*
X269875000Y-22069000D03*
%TD*%
%TO.C,D69*%
X217487500Y-105831500D03*
X217487500Y-103031500D03*
%TD*%
%TO.C,D80*%
X286543800Y-124881500D03*
X286543800Y-122081500D03*
%TD*%
%TO.C,D8*%
X179387500Y-24869000D03*
X179387500Y-22069000D03*
%TD*%
%TO.C,D2*%
X50800000Y-24869000D03*
X50800000Y-22069000D03*
%TD*%
%TO.C,D28*%
X279400000Y-48681500D03*
X279400000Y-45881500D03*
%TD*%
%TO.C,D15*%
X22225000Y-48681500D03*
X22225000Y-45881500D03*
%TD*%
%TO.C,D46*%
X358851200Y-67668000D03*
X358851200Y-64868000D03*
%TD*%
%TO.C,D74*%
X48418800Y-124881500D03*
X48418800Y-122081500D03*
%TD*%
D20*
%TO.C,R5*%
X319511000Y-36095000D03*
X310511000Y-36095000D03*
%TD*%
D24*
%TO.C,D79*%
X262731300Y-124881500D03*
X262731300Y-122081500D03*
%TD*%
%TO.C,D41*%
X203200000Y-67731500D03*
X203200000Y-64931500D03*
%TD*%
%TO.C,D30*%
X358851200Y-48618000D03*
X358851200Y-45818000D03*
%TD*%
%TO.C,D35*%
X88900000Y-67731500D03*
X88900000Y-64931500D03*
%TD*%
%TO.C,D56*%
X207962500Y-86781500D03*
X207962500Y-83981500D03*
%TD*%
%TO.C,D59*%
X277018800Y-86781500D03*
X277018800Y-83981500D03*
%TD*%
%TO.C,D54*%
X169862500Y-86781500D03*
X169862500Y-83981500D03*
%TD*%
%TO.C,D55*%
X188912500Y-86781500D03*
X188912500Y-83981500D03*
%TD*%
%TO.C,D49*%
X74612500Y-86781500D03*
X74612500Y-83981500D03*
%TD*%
%TO.C,D19*%
X98425000Y-48681500D03*
X98425000Y-45881500D03*
%TD*%
%TO.C,D72*%
X358851200Y-105768000D03*
X358851200Y-102968000D03*
%TD*%
%TO.C,D3*%
X69850000Y-24869000D03*
X69850000Y-22069000D03*
%TD*%
%TO.C,D26*%
X231775000Y-48681500D03*
X231775000Y-45881500D03*
%TD*%
%TO.C,D27*%
X250825000Y-48681500D03*
X250825000Y-45881500D03*
%TD*%
%TO.C,D65*%
X141287500Y-105831500D03*
X141287500Y-103031500D03*
%TD*%
%TO.C,D21*%
X136525000Y-48681500D03*
X136525000Y-45881500D03*
%TD*%
%TO.C,D23*%
X174625000Y-48681500D03*
X174625000Y-45881500D03*
%TD*%
%TO.C,D16*%
X41275000Y-48681500D03*
X41275000Y-45881500D03*
%TD*%
%TO.C,D31*%
X377901200Y-48618000D03*
X377901200Y-45818000D03*
%TD*%
%TO.C,D24*%
X193675000Y-48681500D03*
X193675000Y-45881500D03*
%TD*%
%TO.C,D66*%
X160337500Y-105831500D03*
X160337500Y-103031500D03*
%TD*%
%TO.C,D18*%
X79375000Y-48681500D03*
X79375000Y-45881500D03*
%TD*%
%TO.C,D6*%
X141287500Y-24869000D03*
X141287500Y-22069000D03*
%TD*%
%TO.C,D1*%
X22225000Y-24869000D03*
X22225000Y-22069000D03*
%TD*%
%TO.C,D11*%
X250825000Y-24869000D03*
X250825000Y-22069000D03*
%TD*%
%TO.C,D20*%
X117475000Y-48681500D03*
X117475000Y-45881500D03*
%TD*%
%TO.C,D7*%
X160337500Y-24869000D03*
X160337500Y-22069000D03*
%TD*%
%TO.C,D33*%
X50800000Y-67731500D03*
X50800000Y-64931500D03*
%TD*%
D27*
%TO.C,L2*%
X376507380Y-82000000D03*
X374137380Y-82000000D03*
%TD*%
D28*
%TO.C,U8*%
X376192380Y-89540000D03*
X376192380Y-90040000D03*
X376192380Y-90540000D03*
X376192380Y-91040000D03*
X373292380Y-91040000D03*
X373292380Y-90540000D03*
X373292380Y-90040000D03*
X373292380Y-89540000D03*
D29*
X374742380Y-90290000D03*
%TD*%
D24*
%TO.C,D14*%
X358851200Y-29568000D03*
X358851200Y-26768000D03*
%TD*%
%TO.C,D36*%
X107950000Y-67731500D03*
X107950000Y-64931500D03*
%TD*%
%TO.C,D43*%
X241300000Y-67731500D03*
X241300000Y-64931500D03*
%TD*%
M02*
